# xmcd
#
# Track frame offsets:
#	150
#	20705
#	38379
#	56600
#	72080
#	87607
#	104030
#	120762
#	135549
#	152008
#	168159
#	184044
#	199509
#	216766
#	230581
#	248590
#	263321
#	278144
#	294811
#	316012
#	333140
#
# Disc length: 4653 seconds
#
# Revision: 0
# Processed by: cddbd v1.5.2PL0 Copyright (c) Steve Scherf et al.
# Submitted via: audiograbber 1.83.01
#
DISCID=11122b15
DTITLE=Various Artist - Ultimate Disco Party CD2
DYEAR=1900
DGENRE=Disco
TTITLE0=Baccara - Yes Sir, I Can Boogie
TTITLE1=Lipps Inc - Funkytown
TTITLE2=Diana Ross - Upside Down
TTITLE3=Odyssey - Native New Yorker
TTITLE4=Alicia Bridges - I Love The Nightlife (Disco 'Round)
TTITLE5=Patti Brooks - After Dark
TTITLE6=Patsy Gallant - From New York To LA
TTITLE7=Rose Royce - Car Wash (single version)
TTITLE8=The Emotions - Best Of My Love
TTITLE9=Earth Wind and Fire - September
TTITLE10=Musique - In The Bush
TTITLE11=Cher - Take Me Home
TTITLE12=The Three Degrees - Givin' Up Givin' In
TTITLE13=Eruption - I Can't Stand The Rain
TTITLE14=Boney M - Sunny
TTITLE15=Kelly Marie - Feels Like I'm In Love
TTITLE16=The Nolans - I'm In The Mood For Dancing
TTITLE17=The Dooleys - Wanted
TTITLE18=Patrice Rushen - Forget Me Nots
TTITLE19=Cheryl Lynn - Got To Be Real
TTITLE20=Bonnie Pointer - Heaven Must Have Sent You
EXTD=(P) Sony BMG 2008
EXTT0=
EXTT1=
EXTT2=
EXTT3=
EXTT4=
EXTT5=
EXTT6=
EXTT7=
EXTT8=
EXTT9=
EXTT10=
EXTT11=
EXTT12=
EXTT13=
EXTT14=
EXTT15=
EXTT16=
EXTT17=
EXTT18=
EXTT19=
EXTT20=
PLAYORDER=
